<svg width="162" height="166" viewBox="0 0 162 166" fill="none" xmlns="http://www.w3.org/2000/svg">
<path d="M138.651 60.2565C144.047 59.8193 149.589 59.2363 154.985 58.0704C159.797 57.0503 160.526 57.9247 161.109 62.8797C161.693 67.8347 161.401 72.6439 161.547 77.4532C161.547 82.6996 161.255 87.9461 161.109 93.1925C160.964 97.2731 161.693 101.354 161.984 105.434C162.13 107.62 161.255 108.786 159.068 108.932C155.86 109.223 152.505 109.369 149.297 110.098C147.693 110.389 145.943 109.952 144.193 109.952C143.755 109.952 143.318 109.661 142.88 109.806C138.797 110.098 137.339 108.786 138.943 114.324C140.401 119.571 139.38 124.963 140.693 130.209C141.13 132.104 139.526 133.707 137.63 133.853C132.235 134.144 126.985 134.29 121.735 135.747C120.422 136.039 118.964 136.039 117.652 136.039C115.756 136.039 113.86 135.893 111.818 136.476C110.36 136.913 108.756 136.476 107.152 136.184C104.527 135.601 104.089 135.893 103.214 138.516C102.339 141.576 102.631 149.738 103.506 152.944C104.235 155.421 104.527 158.044 104.818 160.668C104.964 162.708 103.068 164.457 101.027 164.02C97.9642 163.437 95.0475 164.165 92.2767 164.457C85.2768 165.331 78.2768 165.768 71.1311 165.477C69.8186 165.477 68.6519 165.186 67.4853 165.768C66.1728 166.351 65.4436 165.768 64.7144 164.748C63.1103 162.271 63.402 159.502 62.8186 156.879C61.9437 153.09 62.9645 149.155 61.0686 145.511C60.9228 145.366 61.0686 145.074 61.0686 144.783C60.9228 140.994 60.0479 139.973 56.402 139.973C51.2979 139.973 46.1938 140.265 41.3813 141.868C40.0688 142.305 38.7564 142.451 37.4439 143.034C36.5689 143.471 35.6938 144.345 34.673 143.471C33.5064 142.451 32.1939 141.431 32.1939 139.536C32.1939 135.601 31.6105 131.812 31.0272 127.877C30.4439 123.651 28.9856 122.339 25.0481 123.943C20.6732 125.691 16.1524 126.566 11.6316 128.023C10.6107 128.315 10.1733 129.043 9.58993 129.772C7.98577 131.812 6.67328 132.395 5.06912 131.667C2.58998 130.501 0.985816 127.877 2.00664 125.546C3.1733 122.922 3.02749 120.445 2.44416 117.822C2.00667 115.198 1.86084 112.575 1.715 109.952C1.715 103.685 1.13167 97.4188 0.110841 91.1522C-0.472487 87.5089 1.27751 84.8856 4.63165 83.4283C11.1941 80.6593 18.194 79.6392 25.1939 78.1818C26.9439 77.8904 27.3814 77.3074 27.5273 75.5586C27.6731 73.0811 28.1106 70.6036 27.2356 68.1261C26.944 67.106 27.0898 66.0858 27.0898 65.0657C27.2356 62.7339 27.2356 60.4022 26.2148 58.0704C25.3398 56.1759 25.0481 53.8441 24.7565 51.8038C24.4648 49.6178 26.6523 46.5574 28.9856 45.9745C29.7147 45.8287 30.4439 45.5372 31.1731 45.2458C36.8605 42.7683 42.6938 41.4567 48.8188 41.1652C51.8812 41.0195 52.4646 40.5823 52.6104 37.5218C52.7562 34.0242 51.8812 30.6723 51.1521 27.3204C50.1313 23.2398 50.1313 19.0135 48.9646 14.9329C48.6729 14.0585 48.8187 13.3299 49.2562 12.6012C50.1312 10.5609 51.0062 9.10356 53.777 8.81209C57.1312 8.52062 60.3395 6.91753 63.6937 6.3346C68.7978 5.31445 74.0477 4.58578 79.1518 3.12843C84.1101 1.67108 89.2143 1.08814 94.1725 0.213736C97.8184 -0.369203 98.8392 0.0680012 99.2767 3.71137C100.443 12.7469 102.047 21.7825 102.339 30.9638C102.485 33.587 102.485 33.587 105.11 33.2955C109.631 32.7126 114.006 30.9638 118.526 30.5266C121.881 30.2351 125.381 29.7979 128.735 29.5064C131.651 29.3607 133.839 32.5669 132.818 35.3358C131.506 38.8334 131.506 42.4768 131.36 46.1202C131.214 49.6178 131.797 53.1155 132.089 56.7588C132.381 60.1107 132.526 60.4022 135.881 60.5479C136.61 60.4022 137.631 60.2565 138.651 60.2565ZM68.9436 146.677C71.7144 148.135 72.0061 148.28 71.8602 149.883C71.5686 151.778 72.2977 152.361 74.0477 152.507C75.3602 152.652 75.9435 153.672 76.2352 154.838C76.5268 155.858 75.6519 156.15 74.9227 156.587C74.4852 156.879 74.3394 157.316 74.3394 157.753C74.4852 158.482 75.2144 158.482 75.6519 158.482C76.2352 158.482 76.8185 158.336 77.4019 158.336C80.4643 158.044 83.5268 157.753 86.5893 157.607C89.5059 157.462 92.5684 157.17 95.485 157.17C97.235 157.17 97.9642 156.296 97.8184 154.693C97.6725 152.798 97.5267 151.049 97.5267 149.155C97.0892 142.888 96.6517 136.621 99.2767 130.646C100.006 129.189 100.589 128.606 101.902 128.606C105.693 128.606 109.339 128.023 113.131 128.606C116.047 129.043 119.11 129.189 122.026 128.752C125.526 128.169 129.026 128.169 132.526 127.294C133.547 127.003 134.422 126.712 134.276 125.546C133.839 122.777 134.714 120.008 133.693 117.384C132.381 113.595 132.089 109.952 132.964 106.017C133.547 103.394 133.547 102.957 136.026 103.54C140.985 104.56 145.797 104.268 150.755 103.685C157.026 102.957 156.297 104.123 155.86 96.9816C155.568 93.0468 155.13 89.1119 155.86 85.4686C156.589 80.6593 156.151 75.8501 156.005 71.1866C156.005 69.4377 155.714 67.5432 155.422 65.7944C155.276 64.4828 154.693 63.7541 153.235 63.8998C151.193 64.0456 149.151 64.337 147.11 64.92C141.86 66.5231 136.318 66.9603 130.922 67.106C129.026 67.106 126.839 65.6486 126.547 64.0456C126.256 62.7339 125.964 61.2766 126.11 59.965C126.547 55.01 126.256 49.9093 126.547 44.9543C126.693 43.0598 126.256 41.0195 126.11 39.1249C125.964 37.5218 125.235 37.0846 123.631 37.0846C116.047 37.2304 108.61 37.959 101.61 41.0195C98.6934 42.3311 96.6517 40.8737 96.5059 37.6676C96.5059 36.9389 96.5058 36.0645 96.6517 35.3358C96.9433 34.0242 96.7975 32.8583 96.7975 31.5467C96.5058 24.4057 95.7767 17.4104 94.3184 10.4152C93.5892 7.06327 92.86 6.3346 89.5059 7.06327C87.9018 7.50047 86.2976 8.22915 84.5476 8.52062C77.8393 9.54076 71.2769 11.7268 64.277 12.0183C63.1103 12.0183 61.7978 12.6012 60.6312 13.0384C58.5895 13.7671 58.4437 14.35 58.7353 16.6818C58.8812 17.9934 59.7562 18.2848 60.4853 18.8678C62.0895 20.0337 62.0895 20.4709 60.6312 22.0739C59.6103 23.2398 58.152 23.677 56.9854 24.5514C56.5479 24.8429 56.1104 25.2801 56.402 26.0088C56.5479 26.446 57.1312 26.5917 57.5687 26.5917C58.8812 26.446 60.0478 26.3003 61.3603 26.1545C62.6728 26.0088 63.9853 26.3003 64.1311 27.9033C64.277 29.6522 63.5478 30.818 61.9436 31.1095C61.0687 31.2552 60.1937 31.401 59.1728 31.5467C57.8604 31.5467 56.9854 31.9839 57.1312 33.587C57.4229 35.1901 58.4437 34.7529 59.4645 34.6071C61.652 34.4614 63.6937 33.8785 65.8811 33.4413C67.3395 33.1498 68.5061 34.0242 68.7978 35.1901C68.9436 36.356 68.3603 37.6676 66.9019 38.1048C65.7353 38.3962 64.7145 38.6877 63.5478 38.8334C62.2353 38.9792 61.2145 39.5621 60.0479 40.1451C59.4645 40.4365 59.1728 41.0195 59.1728 41.7481C59.3187 44.9543 58.4437 46.1202 55.527 46.5574C53.3396 46.8489 51.1521 47.4318 48.8188 47.5775C46.048 47.7233 43.423 47.7233 40.6521 48.4519C37.8813 49.1806 37.298 49.9093 37.0063 52.6782C37.0063 53.4069 37.298 53.9899 37.4439 54.5728C38.173 57.196 38.0272 57.3418 35.4022 58.2162C35.1105 58.3619 34.8189 58.5076 34.3814 58.5076C32.9231 58.7991 33.2147 59.8193 33.0689 60.8394C32.9231 62.151 33.7981 61.8595 34.5272 62.0053C35.6939 62.151 36.7147 62.8797 37.0063 64.1913C37.4438 65.6486 36.2772 66.0859 35.1105 66.6688C34.9647 66.8145 34.6731 66.9603 34.5272 67.106C33.3606 67.9804 33.2147 69.292 33.6522 70.4579C33.9439 71.6238 35.1106 71.3323 35.9855 71.3323C36.5689 71.3323 37.1522 71.3323 37.7355 71.3323C38.7563 71.478 39.6313 71.7695 39.7771 72.7896C39.923 73.8098 39.923 74.8299 39.048 75.5586C38.6105 75.9958 38.0272 76.1415 37.5897 76.2873C34.673 77.1617 34.673 77.1617 34.3814 80.0764C34.2356 82.8453 32.0481 84.8856 29.1314 84.5942C22.569 84.157 16.2982 85.9058 9.88157 87.6546C8.86074 87.9461 7.25662 88.2375 7.54829 89.6949C7.83995 91.1522 9.29825 90.2778 10.1732 90.2778C11.3399 90.4236 12.6524 90.2778 12.944 91.7352C13.2357 93.0468 12.7982 94.2127 11.4857 94.9413C10.9024 95.2328 10.3191 95.67 9.58993 95.8158C8.5691 95.9615 7.83993 96.3987 7.98577 97.5646C8.1316 98.8762 9.15241 98.7304 10.0274 98.5847C10.3191 98.5847 10.4649 98.439 10.7566 98.439C12.2149 98.1475 12.9441 99.1676 13.3816 100.188C13.9649 101.499 12.9441 102.374 11.9233 102.957C11.0483 103.394 10.0274 103.685 9.00661 103.977C7.69412 104.268 7.54825 105.289 7.69408 106.309C7.83992 107.475 8.5691 107.766 9.58993 107.912C10.4649 107.912 11.4857 108.057 12.3607 108.057C13.5274 108.203 14.4024 108.495 14.5482 109.806C14.694 111.264 14.1107 112.284 12.6524 112.575C11.7774 112.721 10.9024 112.867 10.0274 113.012C8.27742 113.304 7.54826 114.47 7.83993 116.219C9.73574 115.927 11.6316 115.781 13.5274 115.49C14.694 115.344 15.8607 115.49 16.444 116.802C16.8815 117.676 17.6107 118.405 18.6315 118.113C21.8398 116.947 25.194 117.676 28.4023 116.802C30.7356 116.219 33.2147 115.927 35.2564 117.822C35.6939 118.259 36.2772 118.259 36.8605 118.259C41.0896 118.842 41.0897 118.842 39.4855 122.777C39.3397 122.922 39.4855 123.214 39.4855 123.505C40.0688 123.505 40.6521 123.505 41.2355 123.651C42.6938 123.943 44.4438 125.546 44.0063 126.857C43.423 128.46 43.8605 129.918 44.0063 131.521C44.298 133.707 44.4438 133.998 46.3396 133.561C50.5687 132.249 54.7979 133.27 58.8812 133.27C60.3395 133.27 61.9436 132.978 63.2561 133.415C65.0061 133.998 66.6103 134.435 68.5061 133.707C69.8186 133.27 70.9853 134.29 70.9853 135.747C70.9853 137.059 70.5477 138.225 69.2353 138.808C68.5061 139.099 67.4853 139.099 67.3395 140.411C68.7978 140.994 70.2561 140.265 71.5686 140.265C73.0269 140.265 74.0477 140.702 74.4852 142.159C74.9227 143.471 73.9019 144.345 73.1727 145.074C72.1519 146.24 70.5477 145.803 68.9436 146.677ZM39.923 134.727C40.5063 135.164 41.2355 135.164 41.8188 134.727C41.8188 134.727 41.8188 134.29 41.673 134.144C40.9438 133.707 40.3605 134.144 39.923 134.727Z" fill="#10100F"/>
<path d="M80.3185 106.163C73.6102 104.706 66.9019 104.123 61.7978 98.8764C59.902 96.8361 58.8811 94.7958 58.8811 92.1726C58.8811 86.6346 60.0478 81.5339 64.1311 77.4533C68.6519 72.9356 74.0477 69.8751 80.3185 68.5635C84.8393 67.5434 88.3392 69.7294 91.5476 72.3526C93.2975 73.6642 94.9017 75.1216 96.2142 76.8704C99.4225 80.5138 101.902 84.5944 101.027 89.8408C100.589 92.464 99.4225 94.5043 97.8184 96.3989C96.7975 97.5648 95.6309 98.4392 94.7559 99.605C91.4017 104.851 85.7143 105.289 80.3185 106.163ZM79.881 99.8965C87.4643 100.188 91.2559 96.2531 94.4642 91.4439C95.1934 90.4237 95.0475 89.2579 94.7559 88.092C93.4434 83.4285 90.0893 80.368 86.2976 77.7448C84.4018 76.4332 82.3601 75.8503 80.1727 76.4332C78.2768 77.0161 76.5268 77.4533 74.7768 78.182C70.2561 80.0766 66.9019 83.2827 65.7353 88.092C65.2978 89.8408 65.2978 91.7354 66.9019 93.4842C70.5477 98.002 75.6518 99.1678 79.881 99.8965Z" fill="#10100F"/>
</svg>
