<svg width="38" height="37" viewBox="0 0 38 37" fill="none" xmlns="http://www.w3.org/2000/svg">
<path d="M8.45238 1.38095H29.5952V0.380951H8.45238V1.38095ZM36.1429 7.92857V29.0714H37.1429V7.92857H36.1429ZM29.5952 35.619H8.45238V36.619H29.5952V35.619ZM1.90476 29.0714V7.92857H0.904762V29.0714H1.90476ZM8.45238 35.619C4.83623 35.619 1.90476 32.6876 1.90476 29.0714H0.904762C0.904762 33.2399 4.28395 36.619 8.45238 36.619V35.619ZM36.1429 29.0714C36.1429 32.6876 33.2114 35.619 29.5952 35.619V36.619C33.7637 36.619 37.1429 33.2399 37.1429 29.0714H36.1429ZM29.5952 1.38095C33.2114 1.38095 36.1429 4.31242 36.1429 7.92857H37.1429C37.1429 3.76014 33.7637 0.380951 29.5952 0.380951V1.38095ZM8.45238 0.380951C4.28395 0.380951 0.904762 3.76013 0.904762 7.92857H1.90476C1.90476 4.31242 4.83623 1.38095 8.45238 1.38095V0.380951ZM19.0238 25.0476C15.4077 25.0476 12.4762 22.1161 12.4762 18.5H11.4762C11.4762 22.6684 14.8554 26.0476 19.0238 26.0476V25.0476ZM25.5714 18.5C25.5714 22.1161 22.64 25.0476 19.0238 25.0476V26.0476C23.1922 26.0476 26.5714 22.6684 26.5714 18.5H25.5714ZM19.0238 11.9524C22.64 11.9524 25.5714 14.8838 25.5714 18.5H26.5714C26.5714 14.3316 23.1922 10.9524 19.0238 10.9524V11.9524ZM19.0238 10.9524C14.8554 10.9524 11.4762 14.3316 11.4762 18.5H12.4762C12.4762 14.8838 15.4077 11.9524 19.0238 11.9524V10.9524ZM28.7143 10.1905H30.4762V9.19047H28.7143V10.1905Z" fill="black" fill-opacity="0.8"/>
</svg>
