<svg width="40" height="39" viewBox="0 0 40 39" fill="none" xmlns="http://www.w3.org/2000/svg">
<path d="M9.45238 3.38095H30.5952V0.380951H9.45238V3.38095ZM36.1429 8.92857V30.0714H39.1429V8.92857H36.1429ZM30.5952 35.619H9.45238V38.619H30.5952V35.619ZM3.90476 30.0714V8.92857H0.904762V30.0714H3.90476ZM9.45238 35.619C6.38852 35.619 3.90476 33.1353 3.90476 30.0714H0.904762C0.904762 34.7921 4.73166 38.619 9.45238 38.619V35.619ZM36.1429 30.0714C36.1429 33.1353 33.6591 35.619 30.5952 35.619V38.619C35.316 38.619 39.1429 34.7921 39.1429 30.0714H36.1429ZM30.5952 3.38095C33.6591 3.38095 36.1429 5.8647 36.1429 8.92857H39.1429C39.1429 4.20785 35.316 0.380951 30.5952 0.380951V3.38095ZM9.45238 0.380951C4.73166 0.380951 0.904762 4.20785 0.904762 8.92857H3.90476C3.90476 5.8647 6.38852 3.38095 9.45238 3.38095V0.380951ZM20.0238 25.0476C16.9599 25.0476 14.4762 22.5639 14.4762 19.5H11.4762C11.4762 24.2207 15.3031 28.0476 20.0238 28.0476V25.0476ZM25.5714 19.5C25.5714 22.5639 23.0877 25.0476 20.0238 25.0476V28.0476C24.7445 28.0476 28.5714 24.2207 28.5714 19.5H25.5714ZM20.0238 13.9524C23.0877 13.9524 25.5714 16.4361 25.5714 19.5H28.5714C28.5714 14.7793 24.7445 10.9524 20.0238 10.9524V13.9524ZM20.0238 10.9524C15.3031 10.9524 11.4762 14.7793 11.4762 19.5H14.4762C14.4762 16.4361 16.9599 13.9524 20.0238 13.9524V10.9524ZM29.7143 12.1905H31.4762V9.19047H29.7143V12.1905Z" fill="black" fill-opacity="0.8"/>
</svg>
