<svg width="40" height="37" viewBox="0 0 40 37" fill="none" xmlns="http://www.w3.org/2000/svg">
<path d="M5.35398 31.4327L5.05981 32.9036H5.05981L5.35398 31.4327ZM34.5984 31.4327L34.8926 32.9036H34.8926L34.5984 31.4327ZM34.7992 5.81919L35.1135 4.35249V4.35249L34.7992 5.81919ZM5.15321 5.81919L5.46751 7.2859H5.46751L5.15321 5.81919ZM16.4524 13.2143L17.2241 11.928C16.7607 11.65 16.1836 11.6427 15.7133 11.909C15.2431 12.1752 14.9524 12.6739 14.9524 13.2143H16.4524ZM16.4524 23.7857H14.9524C14.9524 24.3261 15.2431 24.8247 15.7133 25.091C16.1836 25.3573 16.7607 25.35 17.2241 25.0719L16.4524 23.7857ZM25.2619 18.5L26.0337 19.7862C26.4855 19.5151 26.7619 19.0269 26.7619 18.5C26.7619 17.9731 26.4855 17.4848 26.0337 17.2137L25.2619 18.5ZM0.857147 9.27789V27.7771H3.85715V9.27789H0.857147ZM39.0952 27.7771V9.27789H36.0952V27.7771H39.0952ZM5.05981 32.9036C14.9066 34.8729 25.0458 34.8729 34.8926 32.9036L34.3042 29.9618C24.8459 31.8535 15.1065 31.8535 5.64816 29.9618L5.05981 32.9036ZM35.1135 4.35249C25.1352 2.21429 14.8172 2.21429 4.83892 4.35249L5.46751 7.2859C15.0314 5.23649 24.921 5.23649 34.4849 7.2859L35.1135 4.35249ZM39.0952 9.27789C39.0952 6.90265 37.436 4.85017 35.1135 4.35249L34.4849 7.2859C35.4242 7.48718 36.0952 8.31727 36.0952 9.27789H39.0952ZM36.0952 27.7771C36.0952 28.8391 35.3456 29.7535 34.3042 29.9618L34.8926 32.9036C37.3362 32.4148 39.0952 30.2692 39.0952 27.7771H36.0952ZM0.857147 27.7771C0.857147 30.2692 2.61614 32.4148 5.05981 32.9036L5.64816 29.9618C4.60676 29.7535 3.85715 28.8391 3.85715 27.7771H0.857147ZM3.85715 9.27789C3.85715 8.31727 4.52821 7.48717 5.46751 7.2859L4.83892 4.35249C2.51641 4.85017 0.857147 6.90265 0.857147 9.27789H3.85715ZM14.9524 13.2143V23.7857H17.9524V13.2143H14.9524ZM17.2241 25.0719L26.0337 19.7862L24.4902 17.2137L15.6806 22.4995L17.2241 25.0719ZM26.0337 17.2137L17.2241 11.928L15.6806 14.5005L24.4902 19.7862L26.0337 17.2137Z" fill="black" fill-opacity="0.8"/>
</svg>
