<svg width="38" height="37" viewBox="0 0 38 37" fill="none" xmlns="http://www.w3.org/2000/svg">
<path d="M4.35398 31.4327L4.25593 31.923H4.25593L4.35398 31.4327ZM33.5984 31.4327L33.6965 31.923L33.5984 31.4327ZM33.7992 5.81919L33.9039 5.33029L33.7992 5.81919ZM4.15321 5.81919L4.25798 6.30809L4.15321 5.81919ZM15.4524 13.2143L15.7096 12.7855C15.5552 12.6928 15.3628 12.6904 15.206 12.7792C15.0493 12.8679 14.9524 13.0341 14.9524 13.2143H15.4524ZM15.4524 23.7857H14.9524C14.9524 23.9658 15.0493 24.132 15.206 24.2208C15.3628 24.3095 15.5552 24.3071 15.7096 24.2144L15.4524 23.7857ZM24.2619 18.5L24.5192 18.9287C24.6698 18.8384 24.7619 18.6756 24.7619 18.5C24.7619 18.3244 24.6698 18.1616 24.5192 18.0712L24.2619 18.5ZM0.857147 9.27789V27.7771H1.85715V9.27789H0.857147ZM37.0952 27.7771V9.27789H36.0952V27.7771H37.0952ZM4.25593 31.923C13.9732 33.8664 23.9792 33.8664 33.6965 31.923L33.5003 30.9424C23.9125 32.86 14.0399 32.86 4.45204 30.9424L4.25593 31.923ZM33.9039 5.33029C24.0638 3.22169 13.8886 3.22169 4.04845 5.33029L4.25798 6.30809C13.96 4.22909 23.9924 4.22909 33.6944 6.30809L33.9039 5.33029ZM37.0952 9.27789C37.0952 7.37419 35.7654 5.72917 33.9039 5.33029L33.6944 6.30809C35.0948 6.60817 36.0952 7.84573 36.0952 9.27789H37.0952ZM36.0952 27.7771C36.0952 29.3158 35.0092 30.6406 33.5003 30.9424L33.6965 31.923C35.6727 31.5277 37.0952 29.7925 37.0952 27.7771H36.0952ZM0.857147 27.7771C0.857147 29.7925 2.27968 31.5277 4.25593 31.923L4.45204 30.9424C2.94322 30.6406 1.85715 29.3158 1.85715 27.7771H0.857147ZM1.85715 9.27789C1.85715 7.84573 2.85761 6.60817 4.25798 6.30809L4.04845 5.33029C2.18701 5.72917 0.857147 7.37419 0.857147 9.27789H1.85715ZM14.9524 13.2143V23.7857H15.9524V13.2143H14.9524ZM15.7096 24.2144L24.5192 18.9287L24.0047 18.0712L15.1951 23.3569L15.7096 24.2144ZM24.5192 18.0712L15.7096 12.7855L15.1951 13.643L24.0047 18.9287L24.5192 18.0712Z" fill="black" fill-opacity="0.8"/>
</svg>
